<svg width="40" height="40" viewBox="0 0 40 40" fill="none" xmlns="http://www.w3.org/2000/svg">
<path d="M19.9999 36.6666C29.2047 36.6666 36.6666 29.2047 36.6666 20C36.6666 10.7952 29.2047 3.33331 19.9999 3.33331C10.7952 3.33331 3.33325 10.7952 3.33325 20C3.33325 29.2047 10.7952 36.6666 19.9999 36.6666Z" fill="white"/>
<path d="M20 30C25.5228 30 30 25.5228 30 20C30 14.4772 25.5228 10 20 10C14.4772 10 10 14.4772 10 20C10 25.5228 14.4772 30 20 30Z" stroke="#501B68" stroke-width="3" stroke-linecap="round" stroke-linejoin="round"/>
<path d="M20.0001 23.3334C21.841 23.3334 23.3334 21.841 23.3334 20C23.3334 18.1591 21.841 16.6667 20.0001 16.6667C18.1591 16.6667 16.6667 18.1591 16.6667 20C16.6667 21.841 18.1591 23.3334 20.0001 23.3334Z" stroke="#501B68" stroke-width="3" stroke-linecap="round" stroke-linejoin="round"/>
</svg>
