<svg width="41" height="41" viewBox="0 0 41 41" fill="none" xmlns="http://www.w3.org/2000/svg">
<path d="M20.2841 36.951C29.4888 36.951 36.9508 29.489 36.9508 20.2843C36.9508 11.0795 29.4888 3.61761 20.2841 3.61761C11.0794 3.61761 3.61743 11.0795 3.61743 20.2843C3.61743 29.489 11.0794 36.951 20.2841 36.951Z" fill="white" stroke="#501B68" stroke-width="2" stroke-linecap="round" stroke-linejoin="round"/>
<path d="M20.2841 26.9509C23.966 26.9509 26.9508 23.9662 26.9508 20.2843C26.9508 16.6024 23.966 13.6176 20.2841 13.6176C16.6022 13.6176 13.6174 16.6024 13.6174 20.2843C13.6174 23.9662 16.6022 26.9509 20.2841 26.9509Z" fill="#501B68"/>
<path d="M8.50073 8.50098L15.5674 15.5676" stroke="#501B68" stroke-width="3" stroke-linecap="round" stroke-linejoin="round"/>
<path d="M25.0007 25.001L32.0674 32.0676" stroke="#501B68" stroke-width="3" stroke-linecap="round" stroke-linejoin="round"/>
<path d="M25.0007 15.5676L32.0674 8.50098" stroke="#501B68" stroke-width="3" stroke-linecap="round" stroke-linejoin="round"/>
<path d="M8.50073 32.0676L15.5674 25.001" stroke="#501B68" stroke-width="3" stroke-linecap="round" stroke-linejoin="round"/>
</svg>
